<?xml version="1.0" encoding="UTF-8" standalone="no"?>
<!-- Created with Inkscape (http://www.inkscape.org/) -->

<svg
   version="1.1"
   id="svg2"
   width="61.456001"
   height="40.481335"
   viewBox="0 0 61.456001 40.481335"
   xmlns="http://www.w3.org/2000/svg"
   xmlns:svg="http://www.w3.org/2000/svg">
  <defs
     id="defs6" />
  <g
     id="g10"
     transform="matrix(1.3333333,0,0,-1.3333333,2.3813333,26.721333)">
    <g
       id="g12">
      <g
         id="g14">
        <path
           d="m 0,0 h 7.08669 m 0,0 h 7.0867 -0.85025 m 15.8739,0 h -0.85024 7.08669 m 0,0 h 7.08671"
           style="fill:none;stroke:#000000;stroke-width:0.3985;stroke-linecap:butt;stroke-linejoin:miter;stroke-miterlimit:10;stroke-dasharray:none;stroke-opacity:1"
           id="path16" />
        <g
           id="g18" />
        <g
           id="g20" />
        <g
           id="g22">
          <g
             id="g24" />
          <g
             id="g26"
             transform="translate(7.087)">
            <g
               id="g28" />
            <g
               id="g30"
               transform="translate(-7.087)" />
          </g>
        </g>
        <g
           id="g32" />
        <g
           id="g34" />
        <g
           id="g36">
          <g
             id="g38">
            <path
               d="M 1.58714,0 C 1.58714,0.87656 0.87656,1.58714 0,1.58714 -0.87656,1.58714 -1.58714,0.87656 -1.58714,0 c 0,-0.87656 0.71058,-1.58714 1.58714,-1.58714 0.87656,0 1.58714,0.71058 1.58714,1.58714 z"
               style="fill:#ffffff;fill-opacity:1;fill-rule:nonzero;stroke:#000000;stroke-width:0.3985;stroke-linecap:butt;stroke-linejoin:miter;stroke-miterlimit:10;stroke-dasharray:none;stroke-opacity:1"
               id="path40" />
          </g>
          <g
             id="g42">
            <g
               id="g44" />
          </g>
        </g>
        <g
           id="g46" />
        <g
           id="g48" />
        <g
           id="g50">
          <g
             id="g52">
            <g
               id="g54">
              <path
                 d="M 29.19704,0 13.32314,9.92134 V -9.92134 Z"
                 style="fill:none;stroke:#000000;stroke-width:0.797;stroke-linecap:butt;stroke-linejoin:miter;stroke-miterlimit:10;stroke-dasharray:none;stroke-opacity:1"
                 id="path56" />
              <g
                 id="g58" />
            </g>
            <path
               d="M 29.19704,-9.92134 V 9.92134"
               style="fill:none;stroke:#000000;stroke-width:0.797;stroke-linecap:butt;stroke-linejoin:miter;stroke-miterlimit:10;stroke-dasharray:none;stroke-opacity:1"
               id="path60" />
            <path
               d="m 18.08536,9.92134 6.44339,8.05438"
               style="fill:none;stroke:#000000;stroke-width:0.3985;stroke-linecap:butt;stroke-linejoin:miter;stroke-miterlimit:10;stroke-dasharray:none;stroke-opacity:1"
               id="path62" />
            <g
               id="g64"
               transform="matrix(0.62465,0.78082,-0.78082,0.62465,24.52875,17.97571)">
              <g
                 id="g66">
                <path
                   d="m 2.39102,0 c -0.99626,0.19925 -2.78952,0.59775 -3.98503,1.49438 0.99626,-1.09588 0.99626,-1.89288 0,-2.98876 C -0.3985,-0.59775 1.39476,-0.19925 2.39102,0 Z"
                   style="fill:#000000;fill-opacity:1;fill-rule:nonzero;stroke:none"
                   id="path68" />
              </g>
            </g>
            <path
               d="m 22.84744,7.93709 6.44341,8.05438"
               style="fill:none;stroke:#000000;stroke-width:0.3985;stroke-linecap:butt;stroke-linejoin:miter;stroke-miterlimit:10;stroke-dasharray:none;stroke-opacity:1"
               id="path70" />
            <g
               id="g72"
               transform="matrix(0.62465,0.78082,-0.78082,0.62465,29.29085,15.99146)">
              <g
                 id="g74">
                <path
                   d="m 2.39102,0 c -0.99626,0.19925 -2.78952,0.59775 -3.98503,1.49438 0.99626,-1.09588 0.99626,-1.89288 0,-2.98876 C -0.3985,-0.59775 1.39476,-0.19925 2.39102,0 Z"
                   style="fill:#000000;fill-opacity:1;fill-rule:nonzero;stroke:none"
                   id="path76" />
              </g>
            </g>
          </g>
          <g
             id="g78"
             transform="translate(21.26)">
            <g
               id="g80" />
            <g
               id="g82"
               transform="translate(-21.26)" />
          </g>
        </g>
        <g
           id="g84" />
        <g
           id="g86" />
        <g
           id="g88" />
        <g
           id="g90" />
        <g
           id="g92">
          <g
             id="g94" />
          <g
             id="g96"
             transform="translate(35.433)">
            <g
               id="g98" />
            <g
               id="g100"
               transform="translate(-35.433)" />
          </g>
        </g>
        <g
           id="g102" />
        <g
           id="g104" />
        <g
           id="g106">
          <g
             id="g108">
            <path
               d="m 44.10735,0 c 0,0.87656 -0.71059,1.58714 -1.58715,1.58714 -0.87657,0 -1.58714,-0.71058 -1.58714,-1.58714 0,-0.87656 0.71057,-1.58714 1.58714,-1.58714 0.87656,0 1.58715,0.71058 1.58715,1.58714 z"
               style="fill:#ffffff;fill-opacity:1;fill-rule:nonzero;stroke:#000000;stroke-width:0.3985;stroke-linecap:butt;stroke-linejoin:miter;stroke-miterlimit:10;stroke-dasharray:none;stroke-opacity:1"
               id="path110" />
          </g>
          <g
             id="g112"
             transform="translate(42.52)">
            <g
               id="g114" />
            <g
               id="g116"
               transform="translate(-42.52)" />
          </g>
        </g>
      </g>
    </g>
  </g>
</svg>
