<?xml version="1.0" encoding="UTF-8" standalone="no"?>
<!-- Created with Inkscape (http://www.inkscape.org/) -->

<svg
   version="1.1"
   id="svg2"
   width="1172.184"
   height="569.18665"
   viewBox="0 0 1172.184 569.18665"
   xmlns="http://www.w3.org/2000/svg"
   xmlns:svg="http://www.w3.org/2000/svg">
  <defs
     id="defs6">
    <clipPath
       clipPathUnits="userSpaceOnUse"
       id="clipPath218">
      <path
         d="m 297.6415,184.25424 c 0,62.62285 -50.76441,113.38726 -113.38726,113.38726 -62.62283,0 -113.38724,-50.76441 -113.38724,-113.38726 0,-62.62283 50.76441,-113.38724 113.38724,-113.38724 62.62285,0 113.38726,50.76441 113.38726,113.38724 z"
         id="path216" />
    </clipPath>
    <clipPath
       clipPathUnits="userSpaceOnUse"
       id="clipPath228">
      <path
         d="m 779.53726,184.25424 c 0,62.62285 -50.7644,113.38726 -113.38725,113.38726 -62.62283,0 -113.38724,-50.76441 -113.38724,-113.38726 0,-62.62283 50.76441,-113.38724 113.38724,-113.38724 62.62285,0 113.38725,50.76441 113.38725,113.38724 z"
         id="path226" />
    </clipPath>
  </defs>
  <g
     id="g10"
     transform="matrix(1.3333333,0,0,-1.3333333,0.26533333,491.60401)">
    <g
       id="g12">
      <g
         id="g14">
        <g
           id="g16">
          <path
             d="M 0,0 V 368.50851 H 878.7511 V 0 Z"
             style="fill:#e7eff7;fill-opacity:1;fill-rule:nonzero;stroke:#000000;stroke-width:0.3985;stroke-linecap:butt;stroke-linejoin:miter;stroke-miterlimit:10;stroke-dasharray:none;stroke-opacity:1"
             id="path18" />
        </g>
        <g
           id="g20">
          <path
             d="m 325.9883,184.25424 c 0,78.27856 -63.4555,141.73406 -141.73406,141.73406 -78.27854,0 -141.73404,-63.4555 -141.73404,-141.73406 0,-78.27854 63.4555,-141.73404 141.73404,-141.73404 78.27856,0 141.73406,63.4555 141.73406,141.73404 z"
             style="fill:#c3d7ea;fill-opacity:1;fill-rule:nonzero;stroke:#000000;stroke-width:0.3985;stroke-linecap:butt;stroke-linejoin:miter;stroke-miterlimit:10;stroke-dasharray:none;stroke-opacity:1"
             id="path22" />
        </g>
        <g
           id="g24">
          <path
             d="m 297.6415,184.25424 c 0,62.62285 -50.76441,113.38726 -113.38726,113.38726 -62.62283,0 -113.38724,-50.76441 -113.38724,-113.38726 0,-62.62283 50.76441,-113.38724 113.38724,-113.38724 62.62285,0 113.38726,50.76441 113.38726,113.38724 z"
             style="fill:#abc7e1;fill-opacity:1;fill-rule:nonzero;stroke:#000000;stroke-width:0.3985;stroke-linecap:butt;stroke-linejoin:miter;stroke-miterlimit:10;stroke-dasharray:none;stroke-opacity:1"
             id="path26" />
        </g>
        <g
           id="g28">
          <path
             d="m 807.88406,184.25424 c 0,78.27856 -63.45549,141.73406 -141.73405,141.73406 -78.27855,0 -141.73404,-63.4555 -141.73404,-141.73406 0,-78.27854 63.45549,-141.73404 141.73404,-141.73404 78.27856,0 141.73405,63.4555 141.73405,141.73404 z"
             style="fill:#c3d7ea;fill-opacity:1;fill-rule:nonzero;stroke:#000000;stroke-width:0.3985;stroke-linecap:butt;stroke-linejoin:miter;stroke-miterlimit:10;stroke-dasharray:none;stroke-opacity:1"
             id="path30" />
        </g>
        <g
           id="g32">
          <path
             d="m 779.53726,184.25424 c 0,62.62285 -50.7644,113.38726 -113.38725,113.38726 -62.62283,0 -113.38724,-50.76441 -113.38724,-113.38726 0,-62.62283 50.76441,-113.38724 113.38724,-113.38724 62.62285,0 113.38725,50.76441 113.38725,113.38724 z"
             style="fill:#abc7e1;fill-opacity:1;fill-rule:nonzero;stroke:#000000;stroke-width:0.3985;stroke-linecap:butt;stroke-linejoin:miter;stroke-miterlimit:10;stroke-dasharray:none;stroke-opacity:1"
             id="path34" />
        </g>
        <g
           id="g36">
          <g
             id="g38">
            <g
               id="g40"
               transform="translate(388.383,17.703)">
              <g
                 id="g42">
                <g
                   id="g44"
                   transform="translate(16.935)">
                  <g
                     id="g46"
                     transform="rotate(90,240.7035,-164.8135)">
                    <text
                       xml:space="preserve"
                       transform="matrix(1,0,0,-1,405.517,75.89)"
                       style="font-variant:normal;font-weight:normal;font-size:24.7871px;font-family:CMR17;-inkscape-font-specification:CMR17;writing-mode:lr-tb;fill:#0f5faa;fill-opacity:1;fill-rule:nonzero;stroke:none"
                       id="text50"><tspan
                         x="0 16.540432 33.088299"
                         y="0"
                         id="tspan48">VCC</tspan></text>
                    <g
                       id="g52"
                       transform="translate(405.517,75.89)" />
                  </g>
                  <g
                     id="g54"
                     transform="translate(-16.935)" />
                </g>
              </g>
              <g
                 id="g56"
                 transform="translate(-388.383,-17.703)" />
            </g>
          </g>
        </g>
        <g
           id="g58">
          <g
             id="g60">
            <g
               id="g62"
               transform="translate(416.73,12.752)">
              <g
                 id="g64">
                <g
                   id="g66"
                   transform="translate(16.934)">
                  <g
                     id="g68"
                     transform="rotate(90,252.401,-181.462)">
                    <text
                       xml:space="preserve"
                       transform="matrix(1,0,0,-1,433.863,70.939)"
                       style="font-variant:normal;font-weight:normal;font-size:24.7871px;font-family:CMR17;-inkscape-font-specification:CMR17;writing-mode:lr-tb;fill:#0f5faa;fill-opacity:1;fill-rule:nonzero;stroke:none"
                       id="text72"><tspan
                         x="0 16.547869 33.415489 41.535744"
                         y="0"
                         id="tspan70">TRIG</tspan></text>
                    <g
                       id="g74"
                       transform="translate(433.863,70.939)" />
                  </g>
                  <g
                     id="g76"
                     transform="translate(-16.934)" />
                </g>
              </g>
              <g
                 id="g78"
                 transform="translate(-416.73,-12.752)" />
            </g>
          </g>
        </g>
        <g
           id="g80">
          <g
             id="g82">
            <g
               id="g84"
               transform="translate(445.076,8.946)">
              <g
                 id="g86">
                <g
                   id="g88"
                   transform="translate(16.935)">
                  <g
                     id="g90"
                     transform="rotate(90,264.6715,-197.5385)">
                    <text
                       xml:space="preserve"
                       transform="matrix(1,0,0,-1,462.21,67.133)"
                       style="font-variant:normal;font-weight:normal;font-size:24.7871px;font-family:CMR17;-inkscape-font-specification:CMR17;writing-mode:lr-tb;fill:#0f5faa;fill-opacity:1;fill-rule:nonzero;stroke:none"
                       id="text94"><tspan
                         x="0 15.571257 32.119125 49.30402"
                         y="0"
                         id="tspan92">ECHO</tspan></text>
                    <g
                       id="g96"
                       transform="translate(462.21,67.133)" />
                  </g>
                  <g
                     id="g98"
                     transform="translate(-16.935)" />
                </g>
              </g>
              <g
                 id="g100"
                 transform="translate(-445.076,-8.946)" />
            </g>
          </g>
        </g>
        <g
           id="g102">
          <g
             id="g104">
            <g
               id="g106"
               transform="translate(473.423,16.169)">
              <g
                 id="g108">
                <g
                   id="g110"
                   transform="translate(16.934)">
                  <g
                     id="g112"
                     transform="rotate(90,282.456,-208.1)">
                    <text
                       xml:space="preserve"
                       transform="matrix(1,0,0,-1,490.556,74.356)"
                       style="font-variant:normal;font-weight:normal;font-size:24.7871px;font-family:CMR17;-inkscape-font-specification:CMR17;writing-mode:lr-tb;fill:#0f5faa;fill-opacity:1;fill-rule:nonzero;stroke:none"
                       id="text116"><tspan
                         x="0 18.002871 35.187767"
                         y="0"
                         id="tspan114">GND</tspan></text>
                    <g
                       id="g118"
                       transform="translate(490.556,74.356)" />
                  </g>
                  <g
                     id="g120"
                     transform="translate(-16.934)" />
                </g>
              </g>
              <g
                 id="g122"
                 transform="translate(-473.423,-16.169)" />
            </g>
          </g>
        </g>
        <g
           id="g124">
          <path
             d="m 396.85533,0 v -28.3468 m 0,0 v -28.34682"
             style="fill:none;stroke:#000000;stroke-width:2.98883;stroke-linecap:butt;stroke-linejoin:miter;stroke-miterlimit:10;stroke-dasharray:none;stroke-opacity:1"
             id="path126" />
          <g
             id="g128" />
          <g
             id="g130" />
          <g
             id="g132">
            <g
               id="g134" />
            <g
               id="g136"
               transform="rotate(-90,184.252,-212.598)">
              <g
                 id="g138" />
              <g
                 id="g140"
                 transform="translate(-396.85,28.346)" />
            </g>
          </g>
          <g
             id="g142" />
          <g
             id="g144" />
        </g>
        <g
           id="g146">
          <path
             d="m 425.20213,0 -1e-5,-28.3468 m 0,0 1e-5,-28.34682"
             style="fill:none;stroke:#000000;stroke-width:2.98883;stroke-linecap:butt;stroke-linejoin:miter;stroke-miterlimit:10;stroke-dasharray:none;stroke-opacity:1"
             id="path148" />
          <g
             id="g150" />
          <g
             id="g152" />
          <g
             id="g154">
            <g
               id="g156" />
            <g
               id="g158"
               transform="rotate(-90,198.4255,-226.7715)">
              <g
                 id="g160" />
              <g
                 id="g162"
                 transform="translate(-425.197,28.346)" />
            </g>
          </g>
          <g
             id="g164" />
          <g
             id="g166" />
        </g>
        <g
           id="g168">
          <path
             d="m 453.54895,0 v -28.3468 m 0,0 v -28.34682"
             style="fill:none;stroke:#000000;stroke-width:2.98883;stroke-linecap:butt;stroke-linejoin:miter;stroke-miterlimit:10;stroke-dasharray:none;stroke-opacity:1"
             id="path170" />
          <g
             id="g172" />
          <g
             id="g174" />
          <g
             id="g176">
            <g
               id="g178" />
            <g
               id="g180"
               transform="rotate(-90,212.5985,-240.9445)">
              <g
                 id="g182" />
              <g
                 id="g184"
                 transform="translate(-453.543,28.346)" />
            </g>
          </g>
          <g
             id="g186" />
          <g
             id="g188" />
        </g>
        <g
           id="g190">
          <path
             d="m 481.89577,0 -2e-5,-28.3468 m 0,0 2e-5,-28.34682"
             style="fill:none;stroke:#000000;stroke-width:2.98883;stroke-linecap:butt;stroke-linejoin:miter;stroke-miterlimit:10;stroke-dasharray:none;stroke-opacity:1"
             id="path192" />
          <g
             id="g194" />
          <g
             id="g196" />
          <g
             id="g198">
            <g
               id="g200" />
            <g
               id="g202"
               transform="rotate(-90,226.772,-255.118)">
              <g
                 id="g204" />
              <g
                 id="g206"
                 transform="translate(-481.89,28.346)" />
            </g>
          </g>
          <g
             id="g208" />
          <g
             id="g210" />
        </g>
        <g
           id="g212">
          <g
             id="g214"
             clip-path="url(#clipPath218)">
            <path
               d="M 0,0 H 878.7511 M 0,14.17339 H 878.7511 M 0,28.34679 H 878.7511 M 0,42.52019 H 878.7511 M 0,56.69359 H 878.7511 M 0,70.86697 H 878.7511 M 0,85.04037 H 878.7511 M 0,99.21378 H 878.7511 M 0,113.38718 H 878.7511 M 0,127.56056 H 878.7511 M 0,141.73396 H 878.7511 M 0,155.90736 H 878.7511 M 0,170.08076 H 878.7511 M 0,184.25415 H 878.7511 M 0,198.42755 H 878.7511 M 0,212.60095 H 878.7511 M 0,226.77435 H 878.7511 M 0,240.94775 H 878.7511 M 0,255.12114 H 878.7511 M 0,269.29454 H 878.7511 M 0,283.46794 H 878.7511 M 0,297.64134 H 878.7511 M 0,311.81473 H 878.7511 M 0,325.98813 H 878.7511 M 0,340.16153 H 878.7511 M 0,354.33493 H 878.7511 M 0,368.50832 H 878.7511 M 0,0 V 368.50851 M 14.17339,0 V 368.50851 M 28.34679,0 V 368.50851 M 42.52019,0 V 368.50851 M 56.69359,0 V 368.50851 M 70.86697,0 V 368.50851 M 85.04037,0 V 368.50851 M 99.21378,0 V 368.50851 M 113.38718,0 V 368.50851 M 127.56056,0 V 368.50851 M 141.73396,0 V 368.50851 M 155.90736,0 V 368.50851 M 170.08076,0 V 368.50851 M 184.25415,0 V 368.50851 M 198.42755,0 V 368.50851 M 212.60095,0 V 368.50851 M 226.77435,0 V 368.50851 M 240.94775,0 V 368.50851 M 255.12114,0 V 368.50851 M 269.29454,0 V 368.50851 M 283.46794,0 V 368.50851 M 297.64134,0 V 368.50851 M 311.81473,0 V 368.50851 M 325.98813,0 V 368.50851 M 340.16153,0 V 368.50851 M 354.33493,0 V 368.50851 M 368.50832,0 V 368.50851 M 382.68172,0 V 368.50851 M 396.85512,0 V 368.50851 M 411.02852,0 V 368.50851 M 425.20192,0 V 368.50851 M 439.3753,0 V 368.50851 M 453.5487,0 V 368.50851 M 467.7221,0 V 368.50851 M 481.89551,0 V 368.50851 M 496.0689,0 V 368.50851 M 510.2423,0 V 368.50851 M 524.4157,0 V 368.50851 M 538.5891,0 V 368.50851 M 552.76248,0 V 368.50851 M 566.93588,0 V 368.50851 M 581.10928,0 V 368.50851 M 595.28268,0 V 368.50851 M 609.45607,0 V 368.50851 M 623.62947,0 V 368.50851 M 637.80287,0 V 368.50851 M 651.97627,0 V 368.50851 M 666.14967,0 V 368.50851 M 680.32306,0 V 368.50851 M 694.49646,0 V 368.50851 M 708.66986,0 V 368.50851 M 722.84326,0 V 368.50851 M 737.01665,0 V 368.50851 M 751.19005,0 V 368.50851 M 765.36345,0 V 368.50851 M 779.53685,0 V 368.50851 M 793.71024,0 V 368.50851 M 807.88364,0 V 368.50851 M 822.05704,0 V 368.50851 M 836.23044,0 V 368.50851 M 850.40384,0 V 368.50851 M 864.57722,0 V 368.50851 M 878.75063,0 v 368.50851"
               style="fill:none;stroke:#000000;stroke-width:0.3985;stroke-linecap:butt;stroke-linejoin:miter;stroke-miterlimit:10;stroke-dasharray:none;stroke-opacity:1"
               id="path220" />
          </g>
        </g>
        <g
           id="g222">
          <g
             id="g224"
             clip-path="url(#clipPath228)">
            <path
               d="M 0,0 H 878.7511 M 0,14.17339 H 878.7511 M 0,28.34679 H 878.7511 M 0,42.52019 H 878.7511 M 0,56.69359 H 878.7511 M 0,70.86697 H 878.7511 M 0,85.04037 H 878.7511 M 0,99.21378 H 878.7511 M 0,113.38718 H 878.7511 M 0,127.56056 H 878.7511 M 0,141.73396 H 878.7511 M 0,155.90736 H 878.7511 M 0,170.08076 H 878.7511 M 0,184.25415 H 878.7511 M 0,198.42755 H 878.7511 M 0,212.60095 H 878.7511 M 0,226.77435 H 878.7511 M 0,240.94775 H 878.7511 M 0,255.12114 H 878.7511 M 0,269.29454 H 878.7511 M 0,283.46794 H 878.7511 M 0,297.64134 H 878.7511 M 0,311.81473 H 878.7511 M 0,325.98813 H 878.7511 M 0,340.16153 H 878.7511 M 0,354.33493 H 878.7511 M 0,368.50832 H 878.7511 M 0,0 V 368.50851 M 14.17339,0 V 368.50851 M 28.34679,0 V 368.50851 M 42.52019,0 V 368.50851 M 56.69359,0 V 368.50851 M 70.86697,0 V 368.50851 M 85.04037,0 V 368.50851 M 99.21378,0 V 368.50851 M 113.38718,0 V 368.50851 M 127.56056,0 V 368.50851 M 141.73396,0 V 368.50851 M 155.90736,0 V 368.50851 M 170.08076,0 V 368.50851 M 184.25415,0 V 368.50851 M 198.42755,0 V 368.50851 M 212.60095,0 V 368.50851 M 226.77435,0 V 368.50851 M 240.94775,0 V 368.50851 M 255.12114,0 V 368.50851 M 269.29454,0 V 368.50851 M 283.46794,0 V 368.50851 M 297.64134,0 V 368.50851 M 311.81473,0 V 368.50851 M 325.98813,0 V 368.50851 M 340.16153,0 V 368.50851 M 354.33493,0 V 368.50851 M 368.50832,0 V 368.50851 M 382.68172,0 V 368.50851 M 396.85512,0 V 368.50851 M 411.02852,0 V 368.50851 M 425.20192,0 V 368.50851 M 439.3753,0 V 368.50851 M 453.5487,0 V 368.50851 M 467.7221,0 V 368.50851 M 481.89551,0 V 368.50851 M 496.0689,0 V 368.50851 M 510.2423,0 V 368.50851 M 524.4157,0 V 368.50851 M 538.5891,0 V 368.50851 M 552.76248,0 V 368.50851 M 566.93588,0 V 368.50851 M 581.10928,0 V 368.50851 M 595.28268,0 V 368.50851 M 609.45607,0 V 368.50851 M 623.62947,0 V 368.50851 M 637.80287,0 V 368.50851 M 651.97627,0 V 368.50851 M 666.14967,0 V 368.50851 M 680.32306,0 V 368.50851 M 694.49646,0 V 368.50851 M 708.66986,0 V 368.50851 M 722.84326,0 V 368.50851 M 737.01665,0 V 368.50851 M 751.19005,0 V 368.50851 M 765.36345,0 V 368.50851 M 779.53685,0 V 368.50851 M 793.71024,0 V 368.50851 M 807.88364,0 V 368.50851 M 822.05704,0 V 368.50851 M 836.23044,0 V 368.50851 M 850.40384,0 V 368.50851 M 864.57722,0 V 368.50851 M 878.75063,0 v 368.50851"
               style="fill:none;stroke:#000000;stroke-width:0.3985;stroke-linecap:butt;stroke-linejoin:miter;stroke-miterlimit:10;stroke-dasharray:none;stroke-opacity:1"
               id="path230" />
          </g>
        </g>
      </g>
    </g>
  </g>
</svg>
