<?xml version="1.0" encoding="UTF-8" standalone="no"?>
<!-- Created with Inkscape (http://www.inkscape.org/) -->

<svg
   version="1.1"
   id="svg2"
   width="381.45468"
   height="167.772"
   viewBox="0 0 381.45468 167.772"
   xmlns="http://www.w3.org/2000/svg"
   xmlns:svg="http://www.w3.org/2000/svg">
  <defs
     id="defs6" />
  <g
     id="g10"
     transform="matrix(1.3333333,0,0,-1.3333333,0,167.772)">
    <g
       id="g12"
       transform="translate(31.874,59.577)">
      <g
         id="g14">
        <g
           id="g16">
          <g
             id="g18">
            <path
               d="M 0,42.5202 V -42.52022 L 7.08669,42.5202 m 0,0 v -85.04042 l 7.08668,85.04042 m 2e-5,0 v -85.04042 l 7.0867,85.04042 m 10e-6,0 v -85.04042 l 7.08669,85.04042 m 1e-5,0 v -85.04042 l 7.08669,85.04042 m 0,0 v -85.04042 l 7.0867,85.04042 m 1e-5,0 v -85.04042 l 7.08669,85.04042 m 1e-5,0 v -85.04042 l 7.0867,85.04042 m 2e-5,0 V -42.52022 L 63.7803,42.5202 m 0,0 v -85.04042 l 7.08669,85.04042 m 1e-5,0 v -85.04042 l 7.0867,85.04042 m 2e-5,0 V -42.52022 L 85.0404,42.5202 m 2e-5,0 V -42.52022 L 92.1271,42.5202 m 0,0 v -85.04042 l 7.0867,85.04042 m 2e-5,0 v -85.04042 l 7.08668,85.04042 m 2e-5,0 v -85.04042 l 7.0867,85.04042 m 2e-5,0 v -85.04042 l 7.08668,85.04042 m 0,0 v -85.04042 l 7.08669,85.04042 m 1e-5,0 v -85.04042 l 7.0867,85.04042 m 2e-5,0 v -85.04042 l 7.08668,85.04042 m 2e-5,0 v -85.04042 l 7.0867,85.04042 m 0,0 v -85.04042 l 7.08668,85.04042 m 2e-5,0 v -85.04042 l 7.08669,85.04042 m 10e-6,0 v -85.04042 l 7.0867,85.04042 m 2e-5,0 v -85.04042 l 7.08668,85.04042"
               style="fill:none;stroke:#000000;stroke-width:0.09962;stroke-linecap:butt;stroke-linejoin:miter;stroke-miterlimit:10;stroke-dasharray:none;stroke-opacity:0"
               id="path20" />
          </g>
          <g
             id="g22">
            <path
               d="m 0,0 c 0,0 5.36172,5.36984 7.42104,7.33626 2.05931,1.9664 5.36175,5.07318 7.42105,6.83626 2.05931,1.76309 5.36175,4.43122 7.42106,5.87085 2.05931,1.4396 5.36175,3.48693 7.42104,4.50488 2.05931,1.01796 5.36175,2.30485 7.42107,2.83183 2.05931,0.52698 5.36175,0.96623 7.42104,0.96628 2.05932,4e-5 5.36176,-0.439 7.42107,-0.96585 2.05931,-0.52686 5.36174,-1.81357 7.42104,-2.83141 2.05931,-1.01783 5.36175,-3.06494 7.42106,-4.50444 2.05932,-1.43948 5.36176,-4.10733 7.42106,-5.8704 2.05931,-1.76308 5.36174,-4.87023 7.42105,-6.83671 2.05931,-1.96645 5.36175,-5.30053 7.42105,-7.33627 2.05931,-2.0357 5.36175,-5.36935 7.42107,-7.33581 2.0593,-1.96648 5.36175,-5.07393 7.42104,-6.83713 2.05932,-1.7632 5.36174,-4.43117 7.42106,-5.87084 2.0593,-1.43965 5.36175,-3.48725 7.42105,-4.5053 2.05931,-1.01807 5.36175,-2.30524 7.42106,-2.83228 2.05931,-0.52704 5.36174,-0.96617 7.42104,-0.96628 2.05931,-1.1e-4 5.36175,0.43861 7.42107,0.96541 2.05931,0.52679 5.36175,1.81363 7.42105,2.8314 2.05931,1.01778 5.36175,3.0646 7.42106,4.50403 2.05931,1.43942 5.36174,4.10738 7.42104,5.87039 2.05931,1.76302 5.36175,4.86986 7.42106,6.83628 2.05932,1.9664 7.42106,7.33627 7.42106,7.33627"
               style="fill:none;stroke:#000000;stroke-width:0.09962;stroke-linecap:butt;stroke-linejoin:miter;stroke-miterlimit:10;stroke-dasharray:none;stroke-opacity:0"
               id="path24" />
            <g
               id="g26">
              <g
                 id="g28"
                 transform="translate(181.473,-8.603)">
                <g
                   id="g30">
                  <g
                     id="g32"
                     transform="translate(-213.347,-50.974)">
                    <text
                       xml:space="preserve"
                       transform="matrix(1,0,0,-1,213.347,50.974)"
                       style="font-variant:normal;font-weight:normal;font-size:6.9738px;font-family:CMMI7;-inkscape-font-specification:CMMI7;writing-mode:lr-tb;fill:#000000;fill-opacity:0;fill-rule:nonzero;stroke:none"
                       id="text36"><tspan
                         x="0 3.760273 6.579083"
                         y="0"
                         id="tspan34">sin</tspan></text>
                    <text
                       xml:space="preserve"
                       transform="matrix(1,0,0,-1,224.851,50.974)"
                       style="font-variant:normal;font-weight:normal;font-size:6.9738px;font-family:CMR7;-inkscape-font-specification:CMR7;writing-mode:lr-tb;fill:#000000;fill-opacity:0;fill-rule:nonzero;stroke:none"
                       id="text40"><tspan
                         x="0"
                         y="0"
                         id="tspan38">(</tspan></text>
                    <text
                       xml:space="preserve"
                       transform="matrix(1,0,0,-1,227.964,50.974)"
                       style="font-variant:normal;font-weight:normal;font-size:6.9738px;font-family:CMMI7;-inkscape-font-specification:CMMI7;writing-mode:lr-tb;fill:#000000;fill-opacity:0;fill-rule:nonzero;stroke:none"
                       id="text44"><tspan
                         x="0"
                         y="0"
                         id="tspan42">t</tspan></text>
                    <text
                       xml:space="preserve"
                       transform="matrix(1,0,0,-1,230.974,50.974)"
                       style="font-variant:normal;font-weight:normal;font-size:6.9738px;font-family:CMR7;-inkscape-font-specification:CMR7;writing-mode:lr-tb;fill:#000000;fill-opacity:0;fill-rule:nonzero;stroke:none"
                       id="text48"><tspan
                         x="0"
                         y="0"
                         id="tspan46">)</tspan></text>
                    <g
                       id="g50"
                       transform="translate(213.347,50.974)" />
                  </g>
                </g>
                <g
                   id="g52"
                   transform="translate(-181.473,8.603)" />
              </g>
            </g>
          </g>
          <g
             id="g54" />
          <g
             id="g56" />
          <g
             id="g58" />
          <g
             id="g60" />
          <g
             id="g62" />
          <g
             id="g64" />
          <g
             id="g66" />
          <g
             id="g68" />
          <g
             id="g70" />
          <g
             id="g72" />
          <g
             id="g74" />
          <g
             id="g76" />
          <g
             id="g78" />
          <g
             id="g80" />
          <g
             id="g82" />
          <g
             id="g84" />
          <g
             id="g86" />
          <g
             id="g88" />
          <g
             id="g90" />
          <g
             id="g92" />
          <g
             id="g94" />
          <g
             id="g96" />
          <g
             id="g98" />
          <g
             id="g100" />
          <g
             id="g102" />
          <g
             id="g104" />
          <g
             id="g106" />
          <g
             id="g108" />
          <g
             id="g110" />
          <g
             id="g112" />
          <g
             id="g114" />
          <g
             id="g116" />
          <g
             id="g118" />
          <g
             id="g120" />
          <g
             id="g122" />
          <g
             id="g124" />
          <g
             id="g126" />
          <g
             id="g128" />
          <g
             id="g130" />
          <g
             id="g132" />
          <g
             id="g134" />
          <g
             id="g136" />
          <g
             id="g138" />
          <g
             id="g140" />
          <g
             id="g142" />
          <g
             id="g144" />
          <g
             id="g146" />
          <g
             id="g148" />
          <g
             id="g150" />
          <g
             id="g152" />
          <g
             id="g154">
            <path
               d="m 0,-28.3468 v 56.6936 h 3.86595 v -56.6936 z m 7.08826,0 v 56.6936 h 4.47717 v -56.6936 z m 7.08442,0 v 56.6936 h 5.01821 v -56.6936 z m 7.08991,0 v 56.6936 h 5.44354 v -56.6936 z m 7.08409,0 v 56.6936 h 5.73524 v -56.6936 z m 7.0865,0 v 56.6936 h 5.88155 v -56.6936 z m 7.09017,0 v 56.6936 h 5.87712 v -56.6936 z m 7.08717,0 v 56.6936 h 5.72775 v -56.6936 z m 7.08476,0 v 56.6936 h 5.45754 v -56.6936 z m 7.08299,0 v 56.6936 h 5.08571 v -56.6936 z m 7.08967,0 v 56.6936 h 4.62759 v -56.6936 z m 7.08905,0 v 56.6936 h 4.11894 v -56.6936 z m 7.08117,0 v 56.6936 h 3.5828 v -56.6936 z m 7.08946,0 v 56.6936 h 3.03566 v -56.6936 z m 7.08274,0 v 56.6936 h 2.52217 v -56.6936 z m 7.09204,0 v 56.6936 h 2.05186 v -56.6936 z m 7.08653,0 v 56.6936 h 1.66512 v -56.6936 z m 7.08203,0 v 56.6936 h 1.37793 v -56.6936 z m 7.09293,0 v 56.6936 h 1.21498 v -56.6936 z m 7.08302,0 v 56.6936 h 1.19139 v -56.6936 z m 7.0887,0 v 56.6936 h 1.3094 v -56.6936 z m 7.08194,0 v 56.6936 h 1.58969 v -56.6936 z m 7.09055,0 v 56.6936 h 1.99475 v -56.6936 z m 7.08744,0 v 56.6936 h 2.52614 v -56.6936 z m 7.08521,0 v 56.6936 h 3.13499 v -56.6936 z"
               style="fill:none;stroke:#0f5faa;stroke-width:0.3985;stroke-linecap:butt;stroke-linejoin:miter;stroke-miterlimit:10;stroke-dasharray:none;stroke-opacity:1"
               id="path156" />
            <g
               id="g158">
              <g
                 id="g160"
                 transform="translate(176.733,19.984)">
                <g
                   id="g162">
                  <g
                     id="g164"
                     transform="translate(-208.607,-79.561)">
                    <text
                       xml:space="preserve"
                       transform="matrix(1,0,0,-1,208.607,79.561)"
                       style="font-variant:normal;font-weight:normal;font-size:6.9738px;font-family:CMR7;-inkscape-font-specification:CMR7;writing-mode:lr-tb;fill:#0f5faa;fill-opacity:1;fill-rule:nonzero;stroke:none"
                       id="text168"><tspan
                         x="0 5.3551812 13.38063 23.233215 26.389557 28.644884 32.616463 37.01693 40.98851 44.960087"
                         y="0"
                         id="tspan166">PWMsignaal</tspan></text>
                    <g
                       id="g170"
                       transform="translate(208.607,79.561)" />
                  </g>
                </g>
                <g
                   id="g172"
                   transform="translate(-176.733,-19.984)" />
              </g>
            </g>
          </g>
          <path
             d="M 0,-28.3468 H 223.18793"
             style="fill:none;stroke:#000000;stroke-width:0.3985;stroke-linecap:butt;stroke-linejoin:miter;stroke-miterlimit:10;stroke-dasharray:none;stroke-opacity:1"
             id="path174" />
          <g
             id="g176"
             transform="translate(223.18793,-28.3468)">
            <g
               id="g178">
              <path
                 d="M 3.58653,0 C 2.52383,0.19925 0.797,0.797 -0.3985,1.49438 V -1.49438 C 0.797,-0.797 2.52383,-0.19925 3.58653,0"
                 style="fill:#000000;fill-opacity:1;fill-rule:nonzero;stroke:none"
                 id="path180" />
            </g>
          </g>
          <g
             id="g182">
            <g
               id="g184"
               transform="translate(230.291,-31.41)">
              <g
                 id="g186">
                <g
                   id="g188"
                   transform="translate(-262.165,-28.167)">
                  <text
                     xml:space="preserve"
                     transform="matrix(1,0,0,-1,262.165,28.167)"
                     style="font-variant:normal;font-weight:normal;font-size:9.9626px;font-family:CMMI10;-inkscape-font-specification:CMMI10;writing-mode:lr-tb;fill:#000000;fill-opacity:1;fill-rule:nonzero;stroke:none"
                     id="text192"><tspan
                       x="0"
                       y="0"
                       id="tspan190">t</tspan></text>
                  <g
                     id="g194"
                     transform="translate(262.165,28.167)" />
                </g>
              </g>
              <g
                 id="g196"
                 transform="translate(-230.291,31.41)" />
            </g>
          </g>
          <path
             d="M 0,-28.3468 V 38.93365"
             style="fill:none;stroke:#000000;stroke-width:0.3985;stroke-linecap:butt;stroke-linejoin:miter;stroke-miterlimit:10;stroke-dasharray:none;stroke-opacity:1"
             id="path198" />
          <g
             id="g200"
             transform="rotate(90,-19.466825,19.466825)">
            <g
               id="g202">
              <path
                 d="M 3.58653,0 C 2.52383,0.19925 0.797,0.797 -0.3985,1.49438 V -1.49438 C 0.797,-0.797 2.52383,-0.19925 3.58653,0"
                 style="fill:#000000;fill-opacity:1;fill-rule:nonzero;stroke:none"
                 id="path204" />
            </g>
          </g>
          <g
             id="g206">
            <g
               id="g208"
               transform="translate(-8.501,-31.556)">
              <g
                 id="g210">
                <g
                   id="g212"
                   transform="translate(-23.373,-28.021)">
                  <text
                     xml:space="preserve"
                     transform="matrix(1,0,0,-1,23.373,28.021)"
                     style="font-variant:normal;font-weight:normal;font-size:9.9626px;font-family:CMR10;-inkscape-font-specification:CMR10;writing-mode:lr-tb;fill:#000000;fill-opacity:1;fill-rule:nonzero;stroke:none"
                     id="text216"><tspan
                       x="0"
                       y="0"
                       id="tspan214">0</tspan></text>
                  <g
                     id="g218"
                     transform="translate(23.373,28.021)" />
                </g>
              </g>
              <g
                 id="g220"
                 transform="translate(8.501,31.556)" />
            </g>
          </g>
          <g
             id="g222">
            <g
               id="g224"
               transform="translate(-11.546,39.116)">
              <g
                 id="g226">
                <g
                   id="g228"
                   transform="translate(-20.328,-98.693)">
                  <text
                     xml:space="preserve"
                     transform="matrix(1,0,0,-1,20.328,98.693)"
                     style="font-variant:normal;font-weight:normal;font-size:9.9626px;font-family:CMMI10;-inkscape-font-specification:CMMI10;writing-mode:lr-tb;fill:#000000;fill-opacity:1;fill-rule:nonzero;stroke:none"
                     id="text232"><tspan
                       x="0"
                       y="0"
                       id="tspan230">V</tspan></text>
                  <g
                     id="g234"
                     transform="translate(20.328,98.693)" />
                </g>
              </g>
              <g
                 id="g236"
                 transform="translate(11.546,-39.116)" />
            </g>
          </g>
          <g
             id="g238">
            <path
               d="m 0,0 c 0,0 5.36172,5.36984 7.42104,7.33626 2.05931,1.9664 5.36175,5.07318 7.42105,6.83626 2.05931,1.76309 5.36175,4.43122 7.42106,5.87085 2.05931,1.4396 5.36175,3.48693 7.42104,4.50488 2.05931,1.01796 5.36175,2.30485 7.42107,2.83183 2.05931,0.52698 5.36175,0.96623 7.42104,0.96628 2.05932,4e-5 5.36176,-0.439 7.42107,-0.96585 2.05931,-0.52686 5.36174,-1.81357 7.42104,-2.83141 2.05931,-1.01783 5.36175,-3.06494 7.42106,-4.50444 2.05932,-1.43948 5.36176,-4.10733 7.42106,-5.8704 2.05931,-1.76308 5.36174,-4.87023 7.42105,-6.83671 2.05931,-1.96645 5.36175,-5.30053 7.42105,-7.33627 2.05931,-2.0357 5.36175,-5.36935 7.42107,-7.33581 2.0593,-1.96648 5.36175,-5.07393 7.42104,-6.83713 2.05932,-1.7632 5.36174,-4.43117 7.42106,-5.87084 2.0593,-1.43965 5.36175,-3.48725 7.42105,-4.5053 2.05931,-1.01807 5.36175,-2.30524 7.42106,-2.83228 2.05931,-0.52704 5.36174,-0.96617 7.42104,-0.96628 2.05931,-1.1e-4 5.36175,0.43861 7.42107,0.96541 2.05931,0.52679 5.36175,1.81363 7.42105,2.8314 2.05931,1.01778 5.36175,3.0646 7.42106,4.50403 2.05931,1.43942 5.36174,4.10738 7.42104,5.87039 2.05931,1.76302 5.36175,4.86986 7.42106,6.83628 2.05932,1.9664 7.42106,7.33627 7.42106,7.33627"
               style="fill:none;stroke:#f4a72c;stroke-width:0.3985;stroke-linecap:butt;stroke-linejoin:miter;stroke-miterlimit:10;stroke-dasharray:none;stroke-opacity:1"
               id="path240" />
            <g
               id="g242">
              <g
                 id="g244"
                 transform="translate(181.622,-8.752)">
                <g
                   id="g246">
                  <g
                     id="g248"
                     transform="translate(-213.496,-50.825)">
                    <text
                       xml:space="preserve"
                       transform="matrix(1,0,0,-1,213.496,50.825)"
                       style="font-variant:normal;font-weight:normal;font-size:6.9738px;font-family:CMMI7;-inkscape-font-specification:CMMI7;writing-mode:lr-tb;fill:#f4a72c;fill-opacity:1;fill-rule:nonzero;stroke:none"
                       id="text252"><tspan
                         x="0 3.760273 6.579083"
                         y="0"
                         id="tspan250">sin</tspan></text>
                    <text
                       xml:space="preserve"
                       transform="matrix(1,0,0,-1,225,50.825)"
                       style="font-variant:normal;font-weight:normal;font-size:6.9738px;font-family:CMR7;-inkscape-font-specification:CMR7;writing-mode:lr-tb;fill:#f4a72c;fill-opacity:1;fill-rule:nonzero;stroke:none"
                       id="text256"><tspan
                         x="0"
                         y="0"
                         id="tspan254">(</tspan></text>
                    <text
                       xml:space="preserve"
                       transform="matrix(1,0,0,-1,228.114,50.825)"
                       style="font-variant:normal;font-weight:normal;font-size:6.9738px;font-family:CMMI7;-inkscape-font-specification:CMMI7;writing-mode:lr-tb;fill:#f4a72c;fill-opacity:1;fill-rule:nonzero;stroke:none"
                       id="text260"><tspan
                         x="0"
                         y="0"
                         id="tspan258">t</tspan></text>
                    <text
                       xml:space="preserve"
                       transform="matrix(1,0,0,-1,231.123,50.825)"
                       style="font-variant:normal;font-weight:normal;font-size:6.9738px;font-family:CMR7;-inkscape-font-specification:CMR7;writing-mode:lr-tb;fill:#f4a72c;fill-opacity:1;fill-rule:nonzero;stroke:none"
                       id="text264"><tspan
                         x="0"
                         y="0"
                         id="tspan262">)</tspan></text>
                    <g
                       id="g266"
                       transform="translate(213.496,50.825)" />
                  </g>
                </g>
                <g
                   id="g268"
                   transform="translate(-181.622,8.752)" />
              </g>
            </g>
          </g>
        </g>
      </g>
    </g>
  </g>
</svg>
